<svg xmlns="http://www.w3.org/2000/svg" viewBox="0 0 710 431" width="710" height="431" role="img" aria-label="YUIL">
<defs><linearGradient id="g" x1="0" y1="0" x2="1" y2="0.35">
<stop offset="0" stop-color="#b08a3f"/>
<stop offset="0.45" stop-color="#c9a45c"/>
<stop offset="0.78" stop-color="#d9a55a"/>
<stop offset="1" stop-color="#e0913f"/>
</linearGradient></defs>
<g fill="url(#g)">
<circle cx="528" cy="22" r="4.05"/>
<circle cx="605" cy="22" r="4.05"/>
<circle cx="616" cy="22" r="4.05"/>
<circle cx="627" cy="22" r="4.05"/>
<circle cx="638" cy="22" r="4.05"/>
<circle cx="649" cy="22" r="4.05"/>
<circle cx="660" cy="22" r="4.05"/>
<circle cx="506" cy="33" r="4.05"/>
<circle cx="517" cy="33" r="4.05"/>
<circle cx="528" cy="33" r="4.05"/>
<circle cx="539" cy="33" r="4.05"/>
<circle cx="550" cy="33" r="4.05"/>
<circle cx="605" cy="33" r="4.05"/>
<circle cx="616" cy="33" r="4.05"/>
<circle cx="627" cy="33" r="4.05"/>
<circle cx="638" cy="33" r="4.05"/>
<circle cx="649" cy="33" r="4.05"/>
<circle cx="660" cy="33" r="4.05"/>
<circle cx="495" cy="44" r="4.05"/>
<circle cx="506" cy="44" r="4.05"/>
<circle cx="517" cy="44" r="4.05"/>
<circle cx="528" cy="44" r="4.05"/>
<circle cx="539" cy="44" r="4.05"/>
<circle cx="550" cy="44" r="4.05"/>
<circle cx="605" cy="44" r="4.05"/>
<circle cx="616" cy="44" r="4.05"/>
<circle cx="627" cy="44" r="4.05"/>
<circle cx="638" cy="44" r="4.05"/>
<circle cx="649" cy="44" r="4.05"/>
<circle cx="660" cy="44" r="4.05"/>
<circle cx="495" cy="55" r="4.05"/>
<circle cx="506" cy="55" r="4.05"/>
<circle cx="517" cy="55" r="4.05"/>
<circle cx="528" cy="55" r="4.05"/>
<circle cx="539" cy="55" r="4.05"/>
<circle cx="550" cy="55" r="4.05"/>
<circle cx="605" cy="55" r="4.05"/>
<circle cx="616" cy="55" r="4.05"/>
<circle cx="627" cy="55" r="4.05"/>
<circle cx="638" cy="55" r="4.05"/>
<circle cx="649" cy="55" r="4.05"/>
<circle cx="660" cy="55" r="4.05"/>
<circle cx="495" cy="66" r="4.05"/>
<circle cx="506" cy="66" r="4.05"/>
<circle cx="517" cy="66" r="4.05"/>
<circle cx="528" cy="66" r="4.05"/>
<circle cx="539" cy="66" r="4.05"/>
<circle cx="550" cy="66" r="4.05"/>
<circle cx="605" cy="66" r="4.05"/>
<circle cx="616" cy="66" r="4.05"/>
<circle cx="627" cy="66" r="4.05"/>
<circle cx="638" cy="66" r="4.05"/>
<circle cx="649" cy="66" r="4.05"/>
<circle cx="660" cy="66" r="4.05"/>
<circle cx="506" cy="77" r="4.05"/>
<circle cx="517" cy="77" r="4.05"/>
<circle cx="528" cy="77" r="4.05"/>
<circle cx="539" cy="77" r="4.05"/>
<circle cx="550" cy="77" r="4.05"/>
<circle cx="605" cy="77" r="4.05"/>
<circle cx="616" cy="77" r="4.05"/>
<circle cx="627" cy="77" r="4.05"/>
<circle cx="638" cy="77" r="4.05"/>
<circle cx="649" cy="77" r="4.05"/>
<circle cx="660" cy="77" r="4.05"/>
<circle cx="517" cy="88" r="4.05"/>
<circle cx="528" cy="88" r="4.05"/>
<circle cx="539" cy="88" r="4.05"/>
<circle cx="605" cy="88" r="4.05"/>
<circle cx="616" cy="88" r="4.05"/>
<circle cx="627" cy="88" r="4.05"/>
<circle cx="638" cy="88" r="4.05"/>
<circle cx="649" cy="88" r="4.05"/>
<circle cx="660" cy="88" r="4.05"/>
<circle cx="605" cy="99" r="4.05"/>
<circle cx="616" cy="99" r="4.05"/>
<circle cx="627" cy="99" r="4.05"/>
<circle cx="638" cy="99" r="4.05"/>
<circle cx="649" cy="99" r="4.05"/>
<circle cx="660" cy="99" r="4.05"/>
<circle cx="605" cy="110" r="4.05"/>
<circle cx="616" cy="110" r="4.05"/>
<circle cx="627" cy="110" r="4.05"/>
<circle cx="638" cy="110" r="4.05"/>
<circle cx="649" cy="110" r="4.05"/>
<circle cx="660" cy="110" r="4.05"/>
<circle cx="33" cy="121" r="4.05"/>
<circle cx="44" cy="121" r="4.05"/>
<circle cx="55" cy="121" r="4.05"/>
<circle cx="66" cy="121" r="4.05"/>
<circle cx="77" cy="121" r="4.05"/>
<circle cx="88" cy="121" r="4.05"/>
<circle cx="176" cy="121" r="4.05"/>
<circle cx="187" cy="121" r="4.05"/>
<circle cx="198" cy="121" r="4.05"/>
<circle cx="209" cy="121" r="4.05"/>
<circle cx="220" cy="121" r="4.05"/>
<circle cx="231" cy="121" r="4.05"/>
<circle cx="264" cy="121" r="4.05"/>
<circle cx="275" cy="121" r="4.05"/>
<circle cx="286" cy="121" r="4.05"/>
<circle cx="297" cy="121" r="4.05"/>
<circle cx="308" cy="121" r="4.05"/>
<circle cx="319" cy="121" r="4.05"/>
<circle cx="396" cy="121" r="4.05"/>
<circle cx="407" cy="121" r="4.05"/>
<circle cx="418" cy="121" r="4.05"/>
<circle cx="429" cy="121" r="4.05"/>
<circle cx="440" cy="121" r="4.05"/>
<circle cx="506" cy="121" r="4.05"/>
<circle cx="517" cy="121" r="4.05"/>
<circle cx="528" cy="121" r="4.05"/>
<circle cx="539" cy="121" r="4.05"/>
<circle cx="550" cy="121" r="4.05"/>
<circle cx="605" cy="121" r="4.05"/>
<circle cx="616" cy="121" r="4.05"/>
<circle cx="627" cy="121" r="4.05"/>
<circle cx="638" cy="121" r="4.05"/>
<circle cx="649" cy="121" r="4.05"/>
<circle cx="660" cy="121" r="4.05"/>
<circle cx="33" cy="132" r="4.05"/>
<circle cx="44" cy="132" r="4.05"/>
<circle cx="55" cy="132" r="4.05"/>
<circle cx="66" cy="132" r="4.05"/>
<circle cx="77" cy="132" r="4.05"/>
<circle cx="88" cy="132" r="4.05"/>
<circle cx="176" cy="132" r="4.05"/>
<circle cx="187" cy="132" r="4.05"/>
<circle cx="198" cy="132" r="4.05"/>
<circle cx="209" cy="132" r="4.05"/>
<circle cx="220" cy="132" r="4.05"/>
<circle cx="231" cy="132" r="4.05"/>
<circle cx="264" cy="132" r="4.05"/>
<circle cx="275" cy="132" r="4.05"/>
<circle cx="286" cy="132" r="4.05"/>
<circle cx="297" cy="132" r="4.05"/>
<circle cx="308" cy="132" r="4.05"/>
<circle cx="319" cy="132" r="4.05"/>
<circle cx="396" cy="132" r="4.05"/>
<circle cx="407" cy="132" r="4.05"/>
<circle cx="418" cy="132" r="4.05"/>
<circle cx="429" cy="132" r="4.05"/>
<circle cx="440" cy="132" r="4.05"/>
<circle cx="451" cy="132" r="4.05"/>
<circle cx="495" cy="132" r="4.05"/>
<circle cx="506" cy="132" r="4.05"/>
<circle cx="517" cy="132" r="4.05"/>
<circle cx="528" cy="132" r="4.05"/>
<circle cx="539" cy="132" r="4.05"/>
<circle cx="550" cy="132" r="4.05"/>
<circle cx="605" cy="132" r="4.05"/>
<circle cx="616" cy="132" r="4.05"/>
<circle cx="627" cy="132" r="4.05"/>
<circle cx="638" cy="132" r="4.05"/>
<circle cx="649" cy="132" r="4.05"/>
<circle cx="660" cy="132" r="4.05"/>
<circle cx="33" cy="143" r="4.05"/>
<circle cx="44" cy="143" r="4.05"/>
<circle cx="55" cy="143" r="4.05"/>
<circle cx="66" cy="143" r="4.05"/>
<circle cx="77" cy="143" r="4.05"/>
<circle cx="88" cy="143" r="4.05"/>
<circle cx="165" cy="143" r="4.05"/>
<circle cx="176" cy="143" r="4.05"/>
<circle cx="187" cy="143" r="4.05"/>
<circle cx="198" cy="143" r="4.05"/>
<circle cx="209" cy="143" r="4.05"/>
<circle cx="220" cy="143" r="4.05"/>
<circle cx="231" cy="143" r="4.05"/>
<circle cx="264" cy="143" r="4.05"/>
<circle cx="275" cy="143" r="4.05"/>
<circle cx="286" cy="143" r="4.05"/>
<circle cx="297" cy="143" r="4.05"/>
<circle cx="308" cy="143" r="4.05"/>
<circle cx="319" cy="143" r="4.05"/>
<circle cx="396" cy="143" r="4.05"/>
<circle cx="407" cy="143" r="4.05"/>
<circle cx="418" cy="143" r="4.05"/>
<circle cx="429" cy="143" r="4.05"/>
<circle cx="440" cy="143" r="4.05"/>
<circle cx="451" cy="143" r="4.05"/>
<circle cx="495" cy="143" r="4.05"/>
<circle cx="506" cy="143" r="4.05"/>
<circle cx="517" cy="143" r="4.05"/>
<circle cx="528" cy="143" r="4.05"/>
<circle cx="539" cy="143" r="4.05"/>
<circle cx="550" cy="143" r="4.05"/>
<circle cx="605" cy="143" r="4.05"/>
<circle cx="616" cy="143" r="4.05"/>
<circle cx="627" cy="143" r="4.05"/>
<circle cx="638" cy="143" r="4.05"/>
<circle cx="649" cy="143" r="4.05"/>
<circle cx="660" cy="143" r="4.05"/>
<circle cx="44" cy="154" r="4.05"/>
<circle cx="55" cy="154" r="4.05"/>
<circle cx="66" cy="154" r="4.05"/>
<circle cx="77" cy="154" r="4.05"/>
<circle cx="88" cy="154" r="4.05"/>
<circle cx="99" cy="154" r="4.05"/>
<circle cx="165" cy="154" r="4.05"/>
<circle cx="176" cy="154" r="4.05"/>
<circle cx="187" cy="154" r="4.05"/>
<circle cx="198" cy="154" r="4.05"/>
<circle cx="209" cy="154" r="4.05"/>
<circle cx="220" cy="154" r="4.05"/>
<circle cx="264" cy="154" r="4.05"/>
<circle cx="275" cy="154" r="4.05"/>
<circle cx="286" cy="154" r="4.05"/>
<circle cx="297" cy="154" r="4.05"/>
<circle cx="308" cy="154" r="4.05"/>
<circle cx="319" cy="154" r="4.05"/>
<circle cx="396" cy="154" r="4.05"/>
<circle cx="407" cy="154" r="4.05"/>
<circle cx="418" cy="154" r="4.05"/>
<circle cx="429" cy="154" r="4.05"/>
<circle cx="440" cy="154" r="4.05"/>
<circle cx="451" cy="154" r="4.05"/>
<circle cx="495" cy="154" r="4.05"/>
<circle cx="506" cy="154" r="4.05"/>
<circle cx="517" cy="154" r="4.05"/>
<circle cx="528" cy="154" r="4.05"/>
<circle cx="539" cy="154" r="4.05"/>
<circle cx="550" cy="154" r="4.05"/>
<circle cx="605" cy="154" r="4.05"/>
<circle cx="616" cy="154" r="4.05"/>
<circle cx="627" cy="154" r="4.05"/>
<circle cx="638" cy="154" r="4.05"/>
<circle cx="649" cy="154" r="4.05"/>
<circle cx="660" cy="154" r="4.05"/>
<circle cx="44" cy="165" r="4.05"/>
<circle cx="55" cy="165" r="4.05"/>
<circle cx="66" cy="165" r="4.05"/>
<circle cx="77" cy="165" r="4.05"/>
<circle cx="88" cy="165" r="4.05"/>
<circle cx="99" cy="165" r="4.05"/>
<circle cx="165" cy="165" r="4.05"/>
<circle cx="176" cy="165" r="4.05"/>
<circle cx="187" cy="165" r="4.05"/>
<circle cx="198" cy="165" r="4.05"/>
<circle cx="209" cy="165" r="4.05"/>
<circle cx="220" cy="165" r="4.05"/>
<circle cx="264" cy="165" r="4.05"/>
<circle cx="275" cy="165" r="4.05"/>
<circle cx="286" cy="165" r="4.05"/>
<circle cx="297" cy="165" r="4.05"/>
<circle cx="308" cy="165" r="4.05"/>
<circle cx="319" cy="165" r="4.05"/>
<circle cx="396" cy="165" r="4.05"/>
<circle cx="407" cy="165" r="4.05"/>
<circle cx="418" cy="165" r="4.05"/>
<circle cx="429" cy="165" r="4.05"/>
<circle cx="440" cy="165" r="4.05"/>
<circle cx="451" cy="165" r="4.05"/>
<circle cx="495" cy="165" r="4.05"/>
<circle cx="506" cy="165" r="4.05"/>
<circle cx="517" cy="165" r="4.05"/>
<circle cx="528" cy="165" r="4.05"/>
<circle cx="539" cy="165" r="4.05"/>
<circle cx="550" cy="165" r="4.05"/>
<circle cx="605" cy="165" r="4.05"/>
<circle cx="616" cy="165" r="4.05"/>
<circle cx="627" cy="165" r="4.05"/>
<circle cx="638" cy="165" r="4.05"/>
<circle cx="649" cy="165" r="4.05"/>
<circle cx="660" cy="165" r="4.05"/>
<circle cx="44" cy="176" r="4.05"/>
<circle cx="55" cy="176" r="4.05"/>
<circle cx="66" cy="176" r="4.05"/>
<circle cx="77" cy="176" r="4.05"/>
<circle cx="88" cy="176" r="4.05"/>
<circle cx="99" cy="176" r="4.05"/>
<circle cx="154" cy="176" r="4.05"/>
<circle cx="165" cy="176" r="4.05"/>
<circle cx="176" cy="176" r="4.05"/>
<circle cx="187" cy="176" r="4.05"/>
<circle cx="198" cy="176" r="4.05"/>
<circle cx="209" cy="176" r="4.05"/>
<circle cx="264" cy="176" r="4.05"/>
<circle cx="275" cy="176" r="4.05"/>
<circle cx="286" cy="176" r="4.05"/>
<circle cx="297" cy="176" r="4.05"/>
<circle cx="308" cy="176" r="4.05"/>
<circle cx="319" cy="176" r="4.05"/>
<circle cx="396" cy="176" r="4.05"/>
<circle cx="407" cy="176" r="4.05"/>
<circle cx="418" cy="176" r="4.05"/>
<circle cx="429" cy="176" r="4.05"/>
<circle cx="440" cy="176" r="4.05"/>
<circle cx="451" cy="176" r="4.05"/>
<circle cx="495" cy="176" r="4.05"/>
<circle cx="506" cy="176" r="4.05"/>
<circle cx="517" cy="176" r="4.05"/>
<circle cx="528" cy="176" r="4.05"/>
<circle cx="539" cy="176" r="4.05"/>
<circle cx="550" cy="176" r="4.05"/>
<circle cx="605" cy="176" r="4.05"/>
<circle cx="616" cy="176" r="4.05"/>
<circle cx="627" cy="176" r="4.05"/>
<circle cx="638" cy="176" r="4.05"/>
<circle cx="649" cy="176" r="4.05"/>
<circle cx="660" cy="176" r="4.05"/>
<circle cx="55" cy="187" r="4.05"/>
<circle cx="66" cy="187" r="4.05"/>
<circle cx="77" cy="187" r="4.05"/>
<circle cx="88" cy="187" r="4.05"/>
<circle cx="99" cy="187" r="4.05"/>
<circle cx="110" cy="187" r="4.05"/>
<circle cx="154" cy="187" r="4.05"/>
<circle cx="165" cy="187" r="4.05"/>
<circle cx="176" cy="187" r="4.05"/>
<circle cx="187" cy="187" r="4.05"/>
<circle cx="198" cy="187" r="4.05"/>
<circle cx="209" cy="187" r="4.05"/>
<circle cx="264" cy="187" r="4.05"/>
<circle cx="275" cy="187" r="4.05"/>
<circle cx="286" cy="187" r="4.05"/>
<circle cx="297" cy="187" r="4.05"/>
<circle cx="308" cy="187" r="4.05"/>
<circle cx="319" cy="187" r="4.05"/>
<circle cx="396" cy="187" r="4.05"/>
<circle cx="407" cy="187" r="4.05"/>
<circle cx="418" cy="187" r="4.05"/>
<circle cx="429" cy="187" r="4.05"/>
<circle cx="440" cy="187" r="4.05"/>
<circle cx="451" cy="187" r="4.05"/>
<circle cx="495" cy="187" r="4.05"/>
<circle cx="506" cy="187" r="4.05"/>
<circle cx="517" cy="187" r="4.05"/>
<circle cx="528" cy="187" r="4.05"/>
<circle cx="539" cy="187" r="4.05"/>
<circle cx="550" cy="187" r="4.05"/>
<circle cx="605" cy="187" r="4.05"/>
<circle cx="616" cy="187" r="4.05"/>
<circle cx="627" cy="187" r="4.05"/>
<circle cx="638" cy="187" r="4.05"/>
<circle cx="649" cy="187" r="4.05"/>
<circle cx="660" cy="187" r="4.05"/>
<circle cx="55" cy="198" r="4.05"/>
<circle cx="66" cy="198" r="4.05"/>
<circle cx="77" cy="198" r="4.05"/>
<circle cx="88" cy="198" r="4.05"/>
<circle cx="99" cy="198" r="4.05"/>
<circle cx="110" cy="198" r="4.05"/>
<circle cx="154" cy="198" r="4.05"/>
<circle cx="165" cy="198" r="4.05"/>
<circle cx="176" cy="198" r="4.05"/>
<circle cx="187" cy="198" r="4.05"/>
<circle cx="198" cy="198" r="4.05"/>
<circle cx="209" cy="198" r="4.05"/>
<circle cx="264" cy="198" r="4.05"/>
<circle cx="275" cy="198" r="4.05"/>
<circle cx="286" cy="198" r="4.05"/>
<circle cx="297" cy="198" r="4.05"/>
<circle cx="308" cy="198" r="4.05"/>
<circle cx="319" cy="198" r="4.05"/>
<circle cx="396" cy="198" r="4.05"/>
<circle cx="407" cy="198" r="4.05"/>
<circle cx="418" cy="198" r="4.05"/>
<circle cx="429" cy="198" r="4.05"/>
<circle cx="440" cy="198" r="4.05"/>
<circle cx="451" cy="198" r="4.05"/>
<circle cx="495" cy="198" r="4.05"/>
<circle cx="506" cy="198" r="4.05"/>
<circle cx="517" cy="198" r="4.05"/>
<circle cx="528" cy="198" r="4.05"/>
<circle cx="539" cy="198" r="4.05"/>
<circle cx="550" cy="198" r="4.05"/>
<circle cx="605" cy="198" r="4.05"/>
<circle cx="616" cy="198" r="4.05"/>
<circle cx="627" cy="198" r="4.05"/>
<circle cx="638" cy="198" r="4.05"/>
<circle cx="649" cy="198" r="4.05"/>
<circle cx="660" cy="198" r="4.05"/>
<circle cx="66" cy="209" r="4.05"/>
<circle cx="77" cy="209" r="4.05"/>
<circle cx="88" cy="209" r="4.05"/>
<circle cx="99" cy="209" r="4.05"/>
<circle cx="110" cy="209" r="4.05"/>
<circle cx="143" cy="209" r="4.05"/>
<circle cx="154" cy="209" r="4.05"/>
<circle cx="165" cy="209" r="4.05"/>
<circle cx="176" cy="209" r="4.05"/>
<circle cx="187" cy="209" r="4.05"/>
<circle cx="198" cy="209" r="4.05"/>
<circle cx="264" cy="209" r="4.05"/>
<circle cx="275" cy="209" r="4.05"/>
<circle cx="286" cy="209" r="4.05"/>
<circle cx="297" cy="209" r="4.05"/>
<circle cx="308" cy="209" r="4.05"/>
<circle cx="319" cy="209" r="4.05"/>
<circle cx="396" cy="209" r="4.05"/>
<circle cx="407" cy="209" r="4.05"/>
<circle cx="418" cy="209" r="4.05"/>
<circle cx="429" cy="209" r="4.05"/>
<circle cx="440" cy="209" r="4.05"/>
<circle cx="451" cy="209" r="4.05"/>
<circle cx="495" cy="209" r="4.05"/>
<circle cx="506" cy="209" r="4.05"/>
<circle cx="517" cy="209" r="4.05"/>
<circle cx="528" cy="209" r="4.05"/>
<circle cx="539" cy="209" r="4.05"/>
<circle cx="550" cy="209" r="4.05"/>
<circle cx="605" cy="209" r="4.05"/>
<circle cx="616" cy="209" r="4.05"/>
<circle cx="627" cy="209" r="4.05"/>
<circle cx="638" cy="209" r="4.05"/>
<circle cx="649" cy="209" r="4.05"/>
<circle cx="660" cy="209" r="4.05"/>
<circle cx="66" cy="220" r="4.05"/>
<circle cx="77" cy="220" r="4.05"/>
<circle cx="88" cy="220" r="4.05"/>
<circle cx="99" cy="220" r="4.05"/>
<circle cx="110" cy="220" r="4.05"/>
<circle cx="121" cy="220" r="4.05"/>
<circle cx="143" cy="220" r="4.05"/>
<circle cx="154" cy="220" r="4.05"/>
<circle cx="165" cy="220" r="4.05"/>
<circle cx="176" cy="220" r="4.05"/>
<circle cx="187" cy="220" r="4.05"/>
<circle cx="198" cy="220" r="4.05"/>
<circle cx="264" cy="220" r="4.05"/>
<circle cx="275" cy="220" r="4.05"/>
<circle cx="286" cy="220" r="4.05"/>
<circle cx="297" cy="220" r="4.05"/>
<circle cx="308" cy="220" r="4.05"/>
<circle cx="319" cy="220" r="4.05"/>
<circle cx="396" cy="220" r="4.05"/>
<circle cx="407" cy="220" r="4.05"/>
<circle cx="418" cy="220" r="4.05"/>
<circle cx="429" cy="220" r="4.05"/>
<circle cx="440" cy="220" r="4.05"/>
<circle cx="451" cy="220" r="4.05"/>
<circle cx="495" cy="220" r="4.05"/>
<circle cx="506" cy="220" r="4.05"/>
<circle cx="517" cy="220" r="4.05"/>
<circle cx="528" cy="220" r="4.05"/>
<circle cx="539" cy="220" r="4.05"/>
<circle cx="550" cy="220" r="4.05"/>
<circle cx="605" cy="220" r="4.05"/>
<circle cx="616" cy="220" r="4.05"/>
<circle cx="627" cy="220" r="4.05"/>
<circle cx="638" cy="220" r="4.05"/>
<circle cx="649" cy="220" r="4.05"/>
<circle cx="660" cy="220" r="4.05"/>
<circle cx="77" cy="231" r="4.05"/>
<circle cx="88" cy="231" r="4.05"/>
<circle cx="99" cy="231" r="4.05"/>
<circle cx="110" cy="231" r="4.05"/>
<circle cx="121" cy="231" r="4.05"/>
<circle cx="143" cy="231" r="4.05"/>
<circle cx="154" cy="231" r="4.05"/>
<circle cx="165" cy="231" r="4.05"/>
<circle cx="176" cy="231" r="4.05"/>
<circle cx="187" cy="231" r="4.05"/>
<circle cx="264" cy="231" r="4.05"/>
<circle cx="275" cy="231" r="4.05"/>
<circle cx="286" cy="231" r="4.05"/>
<circle cx="297" cy="231" r="4.05"/>
<circle cx="308" cy="231" r="4.05"/>
<circle cx="319" cy="231" r="4.05"/>
<circle cx="396" cy="231" r="4.05"/>
<circle cx="407" cy="231" r="4.05"/>
<circle cx="418" cy="231" r="4.05"/>
<circle cx="429" cy="231" r="4.05"/>
<circle cx="440" cy="231" r="4.05"/>
<circle cx="451" cy="231" r="4.05"/>
<circle cx="495" cy="231" r="4.05"/>
<circle cx="506" cy="231" r="4.05"/>
<circle cx="517" cy="231" r="4.05"/>
<circle cx="528" cy="231" r="4.05"/>
<circle cx="539" cy="231" r="4.05"/>
<circle cx="550" cy="231" r="4.05"/>
<circle cx="605" cy="231" r="4.05"/>
<circle cx="616" cy="231" r="4.05"/>
<circle cx="627" cy="231" r="4.05"/>
<circle cx="638" cy="231" r="4.05"/>
<circle cx="649" cy="231" r="4.05"/>
<circle cx="660" cy="231" r="4.05"/>
<circle cx="77" cy="242" r="4.05"/>
<circle cx="88" cy="242" r="4.05"/>
<circle cx="99" cy="242" r="4.05"/>
<circle cx="110" cy="242" r="4.05"/>
<circle cx="121" cy="242" r="4.05"/>
<circle cx="132" cy="242" r="4.05"/>
<circle cx="143" cy="242" r="4.05"/>
<circle cx="154" cy="242" r="4.05"/>
<circle cx="165" cy="242" r="4.05"/>
<circle cx="176" cy="242" r="4.05"/>
<circle cx="187" cy="242" r="4.05"/>
<circle cx="264" cy="242" r="4.05"/>
<circle cx="275" cy="242" r="4.05"/>
<circle cx="286" cy="242" r="4.05"/>
<circle cx="297" cy="242" r="4.05"/>
<circle cx="308" cy="242" r="4.05"/>
<circle cx="319" cy="242" r="4.05"/>
<circle cx="396" cy="242" r="4.05"/>
<circle cx="407" cy="242" r="4.05"/>
<circle cx="418" cy="242" r="4.05"/>
<circle cx="429" cy="242" r="4.05"/>
<circle cx="440" cy="242" r="4.05"/>
<circle cx="451" cy="242" r="4.05"/>
<circle cx="495" cy="242" r="4.05"/>
<circle cx="506" cy="242" r="4.05"/>
<circle cx="517" cy="242" r="4.05"/>
<circle cx="528" cy="242" r="4.05"/>
<circle cx="539" cy="242" r="4.05"/>
<circle cx="550" cy="242" r="4.05"/>
<circle cx="605" cy="242" r="4.05"/>
<circle cx="616" cy="242" r="4.05"/>
<circle cx="627" cy="242" r="4.05"/>
<circle cx="638" cy="242" r="4.05"/>
<circle cx="649" cy="242" r="4.05"/>
<circle cx="660" cy="242" r="4.05"/>
<circle cx="77" cy="253" r="4.05"/>
<circle cx="88" cy="253" r="4.05"/>
<circle cx="99" cy="253" r="4.05"/>
<circle cx="110" cy="253" r="4.05"/>
<circle cx="121" cy="253" r="4.05"/>
<circle cx="132" cy="253" r="4.05"/>
<circle cx="143" cy="253" r="4.05"/>
<circle cx="154" cy="253" r="4.05"/>
<circle cx="165" cy="253" r="4.05"/>
<circle cx="176" cy="253" r="4.05"/>
<circle cx="264" cy="253" r="4.05"/>
<circle cx="275" cy="253" r="4.05"/>
<circle cx="286" cy="253" r="4.05"/>
<circle cx="297" cy="253" r="4.05"/>
<circle cx="308" cy="253" r="4.05"/>
<circle cx="319" cy="253" r="4.05"/>
<circle cx="396" cy="253" r="4.05"/>
<circle cx="407" cy="253" r="4.05"/>
<circle cx="418" cy="253" r="4.05"/>
<circle cx="429" cy="253" r="4.05"/>
<circle cx="440" cy="253" r="4.05"/>
<circle cx="451" cy="253" r="4.05"/>
<circle cx="495" cy="253" r="4.05"/>
<circle cx="506" cy="253" r="4.05"/>
<circle cx="517" cy="253" r="4.05"/>
<circle cx="528" cy="253" r="4.05"/>
<circle cx="539" cy="253" r="4.05"/>
<circle cx="550" cy="253" r="4.05"/>
<circle cx="605" cy="253" r="4.05"/>
<circle cx="616" cy="253" r="4.05"/>
<circle cx="627" cy="253" r="4.05"/>
<circle cx="638" cy="253" r="4.05"/>
<circle cx="649" cy="253" r="4.05"/>
<circle cx="660" cy="253" r="4.05"/>
<circle cx="88" cy="264" r="4.05"/>
<circle cx="99" cy="264" r="4.05"/>
<circle cx="110" cy="264" r="4.05"/>
<circle cx="121" cy="264" r="4.05"/>
<circle cx="132" cy="264" r="4.05"/>
<circle cx="143" cy="264" r="4.05"/>
<circle cx="154" cy="264" r="4.05"/>
<circle cx="165" cy="264" r="4.05"/>
<circle cx="176" cy="264" r="4.05"/>
<circle cx="275" cy="264" r="4.05"/>
<circle cx="286" cy="264" r="4.05"/>
<circle cx="297" cy="264" r="4.05"/>
<circle cx="308" cy="264" r="4.05"/>
<circle cx="319" cy="264" r="4.05"/>
<circle cx="330" cy="264" r="4.05"/>
<circle cx="385" cy="264" r="4.05"/>
<circle cx="396" cy="264" r="4.05"/>
<circle cx="407" cy="264" r="4.05"/>
<circle cx="418" cy="264" r="4.05"/>
<circle cx="429" cy="264" r="4.05"/>
<circle cx="440" cy="264" r="4.05"/>
<circle cx="495" cy="264" r="4.05"/>
<circle cx="506" cy="264" r="4.05"/>
<circle cx="517" cy="264" r="4.05"/>
<circle cx="528" cy="264" r="4.05"/>
<circle cx="539" cy="264" r="4.05"/>
<circle cx="550" cy="264" r="4.05"/>
<circle cx="605" cy="264" r="4.05"/>
<circle cx="616" cy="264" r="4.05"/>
<circle cx="627" cy="264" r="4.05"/>
<circle cx="638" cy="264" r="4.05"/>
<circle cx="649" cy="264" r="4.05"/>
<circle cx="660" cy="264" r="4.05"/>
<circle cx="88" cy="275" r="4.05"/>
<circle cx="99" cy="275" r="4.05"/>
<circle cx="110" cy="275" r="4.05"/>
<circle cx="121" cy="275" r="4.05"/>
<circle cx="132" cy="275" r="4.05"/>
<circle cx="143" cy="275" r="4.05"/>
<circle cx="154" cy="275" r="4.05"/>
<circle cx="165" cy="275" r="4.05"/>
<circle cx="176" cy="275" r="4.05"/>
<circle cx="275" cy="275" r="4.05"/>
<circle cx="286" cy="275" r="4.05"/>
<circle cx="297" cy="275" r="4.05"/>
<circle cx="308" cy="275" r="4.05"/>
<circle cx="319" cy="275" r="4.05"/>
<circle cx="330" cy="275" r="4.05"/>
<circle cx="341" cy="275" r="4.05"/>
<circle cx="352" cy="275" r="4.05"/>
<circle cx="363" cy="275" r="4.05"/>
<circle cx="374" cy="275" r="4.05"/>
<circle cx="385" cy="275" r="4.05"/>
<circle cx="396" cy="275" r="4.05"/>
<circle cx="407" cy="275" r="4.05"/>
<circle cx="418" cy="275" r="4.05"/>
<circle cx="429" cy="275" r="4.05"/>
<circle cx="440" cy="275" r="4.05"/>
<circle cx="495" cy="275" r="4.05"/>
<circle cx="506" cy="275" r="4.05"/>
<circle cx="517" cy="275" r="4.05"/>
<circle cx="528" cy="275" r="4.05"/>
<circle cx="539" cy="275" r="4.05"/>
<circle cx="550" cy="275" r="4.05"/>
<circle cx="605" cy="275" r="4.05"/>
<circle cx="616" cy="275" r="4.05"/>
<circle cx="627" cy="275" r="4.05"/>
<circle cx="638" cy="275" r="4.05"/>
<circle cx="649" cy="275" r="4.05"/>
<circle cx="660" cy="275" r="4.05"/>
<circle cx="99" cy="286" r="4.05"/>
<circle cx="110" cy="286" r="4.05"/>
<circle cx="121" cy="286" r="4.05"/>
<circle cx="132" cy="286" r="4.05"/>
<circle cx="143" cy="286" r="4.05"/>
<circle cx="154" cy="286" r="4.05"/>
<circle cx="165" cy="286" r="4.05"/>
<circle cx="275" cy="286" r="4.05"/>
<circle cx="286" cy="286" r="4.05"/>
<circle cx="297" cy="286" r="4.05"/>
<circle cx="308" cy="286" r="4.05"/>
<circle cx="319" cy="286" r="4.05"/>
<circle cx="330" cy="286" r="4.05"/>
<circle cx="341" cy="286" r="4.05"/>
<circle cx="352" cy="286" r="4.05"/>
<circle cx="363" cy="286" r="4.05"/>
<circle cx="374" cy="286" r="4.05"/>
<circle cx="385" cy="286" r="4.05"/>
<circle cx="396" cy="286" r="4.05"/>
<circle cx="407" cy="286" r="4.05"/>
<circle cx="418" cy="286" r="4.05"/>
<circle cx="429" cy="286" r="4.05"/>
<circle cx="440" cy="286" r="4.05"/>
<circle cx="495" cy="286" r="4.05"/>
<circle cx="506" cy="286" r="4.05"/>
<circle cx="517" cy="286" r="4.05"/>
<circle cx="528" cy="286" r="4.05"/>
<circle cx="539" cy="286" r="4.05"/>
<circle cx="550" cy="286" r="4.05"/>
<circle cx="605" cy="286" r="4.05"/>
<circle cx="616" cy="286" r="4.05"/>
<circle cx="627" cy="286" r="4.05"/>
<circle cx="638" cy="286" r="4.05"/>
<circle cx="649" cy="286" r="4.05"/>
<circle cx="660" cy="286" r="4.05"/>
<circle cx="99" cy="297" r="4.05"/>
<circle cx="110" cy="297" r="4.05"/>
<circle cx="121" cy="297" r="4.05"/>
<circle cx="132" cy="297" r="4.05"/>
<circle cx="143" cy="297" r="4.05"/>
<circle cx="154" cy="297" r="4.05"/>
<circle cx="165" cy="297" r="4.05"/>
<circle cx="286" cy="297" r="4.05"/>
<circle cx="297" cy="297" r="4.05"/>
<circle cx="308" cy="297" r="4.05"/>
<circle cx="319" cy="297" r="4.05"/>
<circle cx="330" cy="297" r="4.05"/>
<circle cx="341" cy="297" r="4.05"/>
<circle cx="352" cy="297" r="4.05"/>
<circle cx="363" cy="297" r="4.05"/>
<circle cx="374" cy="297" r="4.05"/>
<circle cx="385" cy="297" r="4.05"/>
<circle cx="396" cy="297" r="4.05"/>
<circle cx="407" cy="297" r="4.05"/>
<circle cx="418" cy="297" r="4.05"/>
<circle cx="429" cy="297" r="4.05"/>
<circle cx="495" cy="297" r="4.05"/>
<circle cx="506" cy="297" r="4.05"/>
<circle cx="517" cy="297" r="4.05"/>
<circle cx="528" cy="297" r="4.05"/>
<circle cx="539" cy="297" r="4.05"/>
<circle cx="550" cy="297" r="4.05"/>
<circle cx="605" cy="297" r="4.05"/>
<circle cx="616" cy="297" r="4.05"/>
<circle cx="627" cy="297" r="4.05"/>
<circle cx="638" cy="297" r="4.05"/>
<circle cx="649" cy="297" r="4.05"/>
<circle cx="660" cy="297" r="4.05"/>
<circle cx="99" cy="308" r="4.05"/>
<circle cx="110" cy="308" r="4.05"/>
<circle cx="121" cy="308" r="4.05"/>
<circle cx="132" cy="308" r="4.05"/>
<circle cx="143" cy="308" r="4.05"/>
<circle cx="154" cy="308" r="4.05"/>
<circle cx="297" cy="308" r="4.05"/>
<circle cx="308" cy="308" r="4.05"/>
<circle cx="319" cy="308" r="4.05"/>
<circle cx="330" cy="308" r="4.05"/>
<circle cx="341" cy="308" r="4.05"/>
<circle cx="352" cy="308" r="4.05"/>
<circle cx="363" cy="308" r="4.05"/>
<circle cx="374" cy="308" r="4.05"/>
<circle cx="385" cy="308" r="4.05"/>
<circle cx="396" cy="308" r="4.05"/>
<circle cx="407" cy="308" r="4.05"/>
<circle cx="418" cy="308" r="4.05"/>
<circle cx="495" cy="308" r="4.05"/>
<circle cx="506" cy="308" r="4.05"/>
<circle cx="517" cy="308" r="4.05"/>
<circle cx="528" cy="308" r="4.05"/>
<circle cx="539" cy="308" r="4.05"/>
<circle cx="550" cy="308" r="4.05"/>
<circle cx="605" cy="308" r="4.05"/>
<circle cx="616" cy="308" r="4.05"/>
<circle cx="627" cy="308" r="4.05"/>
<circle cx="638" cy="308" r="4.05"/>
<circle cx="649" cy="308" r="4.05"/>
<circle cx="660" cy="308" r="4.05"/>
<circle cx="99" cy="319" r="4.05"/>
<circle cx="110" cy="319" r="4.05"/>
<circle cx="121" cy="319" r="4.05"/>
<circle cx="132" cy="319" r="4.05"/>
<circle cx="143" cy="319" r="4.05"/>
<circle cx="154" cy="319" r="4.05"/>
<circle cx="319" cy="319" r="4.05"/>
<circle cx="330" cy="319" r="4.05"/>
<circle cx="341" cy="319" r="4.05"/>
<circle cx="352" cy="319" r="4.05"/>
<circle cx="363" cy="319" r="4.05"/>
<circle cx="374" cy="319" r="4.05"/>
<circle cx="385" cy="319" r="4.05"/>
<circle cx="396" cy="319" r="4.05"/>
<circle cx="495" cy="319" r="4.05"/>
<circle cx="506" cy="319" r="4.05"/>
<circle cx="517" cy="319" r="4.05"/>
<circle cx="528" cy="319" r="4.05"/>
<circle cx="539" cy="319" r="4.05"/>
<circle cx="550" cy="319" r="4.05"/>
<circle cx="605" cy="319" r="4.05"/>
<circle cx="616" cy="319" r="4.05"/>
<circle cx="627" cy="319" r="4.05"/>
<circle cx="638" cy="319" r="4.05"/>
<circle cx="649" cy="319" r="4.05"/>
<circle cx="660" cy="319" r="4.05"/>
<circle cx="99" cy="330" r="4.05"/>
<circle cx="110" cy="330" r="4.05"/>
<circle cx="121" cy="330" r="4.05"/>
<circle cx="132" cy="330" r="4.05"/>
<circle cx="143" cy="330" r="4.05"/>
<circle cx="88" cy="341" r="4.05"/>
<circle cx="99" cy="341" r="4.05"/>
<circle cx="110" cy="341" r="4.05"/>
<circle cx="121" cy="341" r="4.05"/>
<circle cx="132" cy="341" r="4.05"/>
<circle cx="143" cy="341" r="4.05"/>
<circle cx="88" cy="352" r="4.05"/>
<circle cx="99" cy="352" r="4.05"/>
<circle cx="110" cy="352" r="4.05"/>
<circle cx="121" cy="352" r="4.05"/>
<circle cx="132" cy="352" r="4.05"/>
<circle cx="143" cy="352" r="4.05"/>
<circle cx="77" cy="363" r="4.05"/>
<circle cx="88" cy="363" r="4.05"/>
<circle cx="99" cy="363" r="4.05"/>
<circle cx="110" cy="363" r="4.05"/>
<circle cx="121" cy="363" r="4.05"/>
<circle cx="132" cy="363" r="4.05"/>
<circle cx="77" cy="374" r="4.05"/>
<circle cx="88" cy="374" r="4.05"/>
<circle cx="99" cy="374" r="4.05"/>
<circle cx="110" cy="374" r="4.05"/>
<circle cx="121" cy="374" r="4.05"/>
<circle cx="132" cy="374" r="4.05"/>
<circle cx="66" cy="385" r="4.05"/>
<circle cx="77" cy="385" r="4.05"/>
<circle cx="88" cy="385" r="4.05"/>
<circle cx="99" cy="385" r="4.05"/>
<circle cx="110" cy="385" r="4.05"/>
<circle cx="121" cy="385" r="4.05"/>
<circle cx="66" cy="396" r="4.05"/>
<circle cx="77" cy="396" r="4.05"/>
<circle cx="88" cy="396" r="4.05"/>
<circle cx="99" cy="396" r="4.05"/>
<circle cx="110" cy="396" r="4.05"/>
<circle cx="121" cy="396" r="4.05"/>
<circle cx="55" cy="407" r="4.05"/>
<circle cx="66" cy="407" r="4.05"/>
<circle cx="77" cy="407" r="4.05"/>
<circle cx="88" cy="407" r="4.05"/>
<circle cx="99" cy="407" r="4.05"/>
<circle cx="110" cy="407" r="4.05"/>
</g></svg>